%TF.GenerationSoftware,KiCad,Pcbnew,9.0.4*%
%TF.CreationDate,2026-08-26T22:21:19+09:00*%
%TF.ProjectId,miniduc_shild,6d696e69-6475-4635-9f73-68696c642e6b,rev?*%
%TF.SameCoordinates,Original*%
%TF.FileFunction,Legend,Bot*%
%TF.FilePolarity,Positive*%
%FSLAX46Y46*%
G04 Gerber Fmt 4.6, Leading zero omitted, Abs format (unit mm)*
G04 Created by KiCad (PCBNEW 9.0.4) date 2026-08-26 22:21:19*
%MOMM*%
%LPD*%
G01*
G04 APERTURE LIST*
G04 Aperture macros list*
%AMRoundRect*
0 Rectangle with rounded corners*
0 $1 Rounding radius*
0 $2 $3 $4 $5 $6 $7 $8 $9 X,Y pos of 4 corners*
0 Add a 4 corners polygon primitive as box body*
4,1,4,$2,$3,$4,$5,$6,$7,$8,$9,$2,$3,0*
0 Add four circle primitives for the rounded corners*
1,1,$1+$1,$2,$3*
1,1,$1+$1,$4,$5*
1,1,$1+$1,$6,$7*
1,1,$1+$1,$8,$9*
0 Add four rect primitives between the rounded corners*
20,1,$1+$1,$2,$3,$4,$5,0*
20,1,$1+$1,$4,$5,$6,$7,0*
20,1,$1+$1,$6,$7,$8,$9,0*
20,1,$1+$1,$8,$9,$2,$3,0*%
G04 Aperture macros list end*
%ADD10C,0.150000*%
%ADD11C,0.120000*%
%ADD12RoundRect,0.250000X0.600000X0.675000X-0.600000X0.675000X-0.600000X-0.675000X0.600000X-0.675000X0*%
%ADD13O,1.700000X1.850000*%
%ADD14RoundRect,0.250000X0.675000X-0.600000X0.675000X0.600000X-0.675000X0.600000X-0.675000X-0.600000X0*%
%ADD15O,1.850000X1.700000*%
%ADD16RoundRect,0.250000X-0.600000X-0.600000X0.600000X-0.600000X0.600000X0.600000X-0.600000X0.600000X0*%
%ADD17C,1.700000*%
%ADD18C,2.700000*%
%ADD19R,3.500000X3.500000*%
%ADD20RoundRect,0.750000X1.000000X-0.750000X1.000000X0.750000X-1.000000X0.750000X-1.000000X-0.750000X0*%
%ADD21RoundRect,0.875000X0.875000X-0.875000X0.875000X0.875000X-0.875000X0.875000X-0.875000X-0.875000X0*%
%ADD22RoundRect,0.250001X-0.949999X0.949999X-0.949999X-0.949999X0.949999X-0.949999X0.949999X0.949999X0*%
%ADD23C,2.400000*%
%ADD24RoundRect,0.250000X-0.675000X0.600000X-0.675000X-0.600000X0.675000X-0.600000X0.675000X0.600000X0*%
%ADD25C,2.300000*%
%ADD26R,1.700000X1.700000*%
%ADD27C,6.000000*%
%ADD28RoundRect,0.200000X-0.200000X-0.275000X0.200000X-0.275000X0.200000X0.275000X-0.200000X0.275000X0*%
%ADD29RoundRect,0.200000X0.200000X0.275000X-0.200000X0.275000X-0.200000X-0.275000X0.200000X-0.275000X0*%
%ADD30RoundRect,0.225000X-0.225000X-0.250000X0.225000X-0.250000X0.225000X0.250000X-0.225000X0.250000X0*%
G04 APERTURE END LIST*
D10*
X80341666Y-53384819D02*
X80674999Y-52908628D01*
X80913094Y-53384819D02*
X80913094Y-52384819D01*
X80913094Y-52384819D02*
X80532142Y-52384819D01*
X80532142Y-52384819D02*
X80436904Y-52432438D01*
X80436904Y-52432438D02*
X80389285Y-52480057D01*
X80389285Y-52480057D02*
X80341666Y-52575295D01*
X80341666Y-52575295D02*
X80341666Y-52718152D01*
X80341666Y-52718152D02*
X80389285Y-52813390D01*
X80389285Y-52813390D02*
X80436904Y-52861009D01*
X80436904Y-52861009D02*
X80532142Y-52908628D01*
X80532142Y-52908628D02*
X80913094Y-52908628D01*
X79960713Y-52480057D02*
X79913094Y-52432438D01*
X79913094Y-52432438D02*
X79817856Y-52384819D01*
X79817856Y-52384819D02*
X79579761Y-52384819D01*
X79579761Y-52384819D02*
X79484523Y-52432438D01*
X79484523Y-52432438D02*
X79436904Y-52480057D01*
X79436904Y-52480057D02*
X79389285Y-52575295D01*
X79389285Y-52575295D02*
X79389285Y-52670533D01*
X79389285Y-52670533D02*
X79436904Y-52813390D01*
X79436904Y-52813390D02*
X80008332Y-53384819D01*
X80008332Y-53384819D02*
X79389285Y-53384819D01*
X124841666Y-47524819D02*
X125174999Y-47048628D01*
X125413094Y-47524819D02*
X125413094Y-46524819D01*
X125413094Y-46524819D02*
X125032142Y-46524819D01*
X125032142Y-46524819D02*
X124936904Y-46572438D01*
X124936904Y-46572438D02*
X124889285Y-46620057D01*
X124889285Y-46620057D02*
X124841666Y-46715295D01*
X124841666Y-46715295D02*
X124841666Y-46858152D01*
X124841666Y-46858152D02*
X124889285Y-46953390D01*
X124889285Y-46953390D02*
X124936904Y-47001009D01*
X124936904Y-47001009D02*
X125032142Y-47048628D01*
X125032142Y-47048628D02*
X125413094Y-47048628D01*
X123984523Y-46858152D02*
X123984523Y-47524819D01*
X124222618Y-46477200D02*
X124460713Y-47191485D01*
X124460713Y-47191485D02*
X123841666Y-47191485D01*
X124991666Y-63024819D02*
X125324999Y-62548628D01*
X125563094Y-63024819D02*
X125563094Y-62024819D01*
X125563094Y-62024819D02*
X125182142Y-62024819D01*
X125182142Y-62024819D02*
X125086904Y-62072438D01*
X125086904Y-62072438D02*
X125039285Y-62120057D01*
X125039285Y-62120057D02*
X124991666Y-62215295D01*
X124991666Y-62215295D02*
X124991666Y-62358152D01*
X124991666Y-62358152D02*
X125039285Y-62453390D01*
X125039285Y-62453390D02*
X125086904Y-62501009D01*
X125086904Y-62501009D02*
X125182142Y-62548628D01*
X125182142Y-62548628D02*
X125563094Y-62548628D01*
X124134523Y-62024819D02*
X124324999Y-62024819D01*
X124324999Y-62024819D02*
X124420237Y-62072438D01*
X124420237Y-62072438D02*
X124467856Y-62120057D01*
X124467856Y-62120057D02*
X124563094Y-62262914D01*
X124563094Y-62262914D02*
X124610713Y-62453390D01*
X124610713Y-62453390D02*
X124610713Y-62834342D01*
X124610713Y-62834342D02*
X124563094Y-62929580D01*
X124563094Y-62929580D02*
X124515475Y-62977200D01*
X124515475Y-62977200D02*
X124420237Y-63024819D01*
X124420237Y-63024819D02*
X124229761Y-63024819D01*
X124229761Y-63024819D02*
X124134523Y-62977200D01*
X124134523Y-62977200D02*
X124086904Y-62929580D01*
X124086904Y-62929580D02*
X124039285Y-62834342D01*
X124039285Y-62834342D02*
X124039285Y-62596247D01*
X124039285Y-62596247D02*
X124086904Y-62501009D01*
X124086904Y-62501009D02*
X124134523Y-62453390D01*
X124134523Y-62453390D02*
X124229761Y-62405771D01*
X124229761Y-62405771D02*
X124420237Y-62405771D01*
X124420237Y-62405771D02*
X124515475Y-62453390D01*
X124515475Y-62453390D02*
X124563094Y-62501009D01*
X124563094Y-62501009D02*
X124610713Y-62596247D01*
X80391666Y-46384819D02*
X80724999Y-45908628D01*
X80963094Y-46384819D02*
X80963094Y-45384819D01*
X80963094Y-45384819D02*
X80582142Y-45384819D01*
X80582142Y-45384819D02*
X80486904Y-45432438D01*
X80486904Y-45432438D02*
X80439285Y-45480057D01*
X80439285Y-45480057D02*
X80391666Y-45575295D01*
X80391666Y-45575295D02*
X80391666Y-45718152D01*
X80391666Y-45718152D02*
X80439285Y-45813390D01*
X80439285Y-45813390D02*
X80486904Y-45861009D01*
X80486904Y-45861009D02*
X80582142Y-45908628D01*
X80582142Y-45908628D02*
X80963094Y-45908628D01*
X79439285Y-46384819D02*
X80010713Y-46384819D01*
X79724999Y-46384819D02*
X79724999Y-45384819D01*
X79724999Y-45384819D02*
X79820237Y-45527676D01*
X79820237Y-45527676D02*
X79915475Y-45622914D01*
X79915475Y-45622914D02*
X80010713Y-45670533D01*
X124991666Y-55524819D02*
X125324999Y-55048628D01*
X125563094Y-55524819D02*
X125563094Y-54524819D01*
X125563094Y-54524819D02*
X125182142Y-54524819D01*
X125182142Y-54524819D02*
X125086904Y-54572438D01*
X125086904Y-54572438D02*
X125039285Y-54620057D01*
X125039285Y-54620057D02*
X124991666Y-54715295D01*
X124991666Y-54715295D02*
X124991666Y-54858152D01*
X124991666Y-54858152D02*
X125039285Y-54953390D01*
X125039285Y-54953390D02*
X125086904Y-55001009D01*
X125086904Y-55001009D02*
X125182142Y-55048628D01*
X125182142Y-55048628D02*
X125563094Y-55048628D01*
X124658332Y-54524819D02*
X124039285Y-54524819D01*
X124039285Y-54524819D02*
X124372618Y-54905771D01*
X124372618Y-54905771D02*
X124229761Y-54905771D01*
X124229761Y-54905771D02*
X124134523Y-54953390D01*
X124134523Y-54953390D02*
X124086904Y-55001009D01*
X124086904Y-55001009D02*
X124039285Y-55096247D01*
X124039285Y-55096247D02*
X124039285Y-55334342D01*
X124039285Y-55334342D02*
X124086904Y-55429580D01*
X124086904Y-55429580D02*
X124134523Y-55477200D01*
X124134523Y-55477200D02*
X124229761Y-55524819D01*
X124229761Y-55524819D02*
X124515475Y-55524819D01*
X124515475Y-55524819D02*
X124610713Y-55477200D01*
X124610713Y-55477200D02*
X124658332Y-55429580D01*
D11*
%TO.C,R2*%
X79937742Y-50977500D02*
X80412258Y-50977500D01*
X79937742Y-52022500D02*
X80412258Y-52022500D01*
%TO.C,R4*%
X124912258Y-47977500D02*
X124437742Y-47977500D01*
X124912258Y-49022500D02*
X124437742Y-49022500D01*
%TO.C,R6*%
X125062258Y-63477500D02*
X124587742Y-63477500D01*
X125062258Y-64522500D02*
X124587742Y-64522500D01*
%TO.C,R1*%
X80084420Y-43990000D02*
X80365580Y-43990000D01*
X80084420Y-45010000D02*
X80365580Y-45010000D01*
%TO.C,R3*%
X125062258Y-55977500D02*
X124587742Y-55977500D01*
X125062258Y-57022500D02*
X124587742Y-57022500D01*
%TD*%
%LPC*%
D12*
%TO.C,J9*%
X126000000Y-53500000D03*
D13*
X123500000Y-53500000D03*
%TD*%
D14*
%TO.C,J7*%
X125000000Y-108500000D03*
D15*
X125000000Y-106000000D03*
X125000000Y-103500000D03*
%TD*%
D12*
%TO.C,J14*%
X126000000Y-60855000D03*
D13*
X123500000Y-60855000D03*
%TD*%
D12*
%TO.C,J4*%
X81000000Y-48855000D03*
D13*
X78500000Y-48855000D03*
%TD*%
D16*
%TO.C,J5*%
X113500000Y-51760000D03*
D17*
X116040000Y-51760000D03*
X113500000Y-54300000D03*
X116040000Y-54300000D03*
X113500000Y-56840000D03*
X116040000Y-56840000D03*
X113500000Y-59380000D03*
X116040000Y-59380000D03*
X113500000Y-61920000D03*
X116040000Y-61920000D03*
X113500000Y-64460000D03*
X116040000Y-64460000D03*
X113500000Y-67000000D03*
X116040000Y-67000000D03*
X113500000Y-69540000D03*
X116040000Y-69540000D03*
X113500000Y-72080000D03*
X116040000Y-72080000D03*
X113500000Y-74620000D03*
X116040000Y-74620000D03*
X113500000Y-77160000D03*
X116040000Y-77160000D03*
X113500000Y-79700000D03*
X116040000Y-79700000D03*
X113500000Y-82240000D03*
X116040000Y-82240000D03*
X113500000Y-84780000D03*
X116040000Y-84780000D03*
X113500000Y-87320000D03*
X116040000Y-87320000D03*
X113500000Y-89860000D03*
X116040000Y-89860000D03*
X113500000Y-92400000D03*
X116040000Y-92400000D03*
X113500000Y-94940000D03*
X116040000Y-94940000D03*
X113500000Y-97480000D03*
X116040000Y-97480000D03*
X113500000Y-100020000D03*
X116040000Y-100020000D03*
%TD*%
D18*
%TO.C,*%
X118000000Y-111500000D03*
%TD*%
D12*
%TO.C,J10*%
X126000000Y-45500000D03*
D13*
X123500000Y-45500000D03*
%TD*%
D19*
%TO.C,J13*%
X80000000Y-99500000D03*
D20*
X80000000Y-105500000D03*
D21*
X84700000Y-102500000D03*
%TD*%
D12*
%TO.C,J3*%
X81000000Y-41500000D03*
D13*
X78500000Y-41500000D03*
%TD*%
D18*
%TO.C,REF\u002A\u002A*%
X87500000Y-42500000D03*
%TD*%
D14*
%TO.C,J1*%
X124645000Y-97000000D03*
D15*
X124645000Y-94500000D03*
X124645000Y-92000000D03*
%TD*%
D22*
%TO.C,J2*%
X125500000Y-67750000D03*
D23*
X125500000Y-71250000D03*
%TD*%
D24*
%TO.C,J6*%
X79000000Y-72000000D03*
D15*
X79000000Y-74500000D03*
X79000000Y-77000000D03*
X79000000Y-79500000D03*
%TD*%
D25*
%TO.C,SW1*%
X80000000Y-85300000D03*
X80000000Y-90000000D03*
X80000000Y-94700000D03*
%TD*%
D26*
%TO.C,J8*%
X127000000Y-86500000D03*
D17*
X124460000Y-86500000D03*
X121920000Y-86500000D03*
%TD*%
D24*
%TO.C,J11*%
X79000000Y-56000000D03*
D15*
X79000000Y-58500000D03*
X79000000Y-61000000D03*
X79000000Y-63500000D03*
X79000000Y-66000000D03*
%TD*%
D22*
%TO.C,J12*%
X125500000Y-77250000D03*
D23*
X125500000Y-80750000D03*
%TD*%
D27*
%TO.C,REF\u002A\u002A*%
X114770000Y-104890000D03*
X114770000Y-46890000D03*
X91770000Y-104890000D03*
X91770000Y-46890000D03*
%TD*%
D28*
%TO.C,R2*%
X79350000Y-51500000D03*
X81000000Y-51500000D03*
%TD*%
D29*
%TO.C,R4*%
X125500000Y-48500000D03*
X123850000Y-48500000D03*
%TD*%
%TO.C,R6*%
X125650000Y-64000000D03*
X124000000Y-64000000D03*
%TD*%
D30*
%TO.C,R1*%
X79450000Y-44500000D03*
X81000000Y-44500000D03*
%TD*%
D29*
%TO.C,R3*%
X125650000Y-56500000D03*
X124000000Y-56500000D03*
%TD*%
%LPD*%
M02*
