M48
; DRILL file {KiCad 9.0.4} date 2026-08-26T22:21:19+0900
; FORMAT={-:-/ absolute / metric / decimal}
; #@! TF.CreationDate,2026-08-26T22:21:19+09:00
; #@! TF.GenerationSoftware,Kicad,Pcbnew,9.0.4
; #@! TF.FileFunction,Plated,1,2,PTH
FMAT,2
METRIC
; #@! TA.AperFunction,Plated,PTH,ViaDrill
T1C0.300
; #@! TA.AperFunction,Plated,PTH,ViaDrill
T2C0.400
; #@! TA.AperFunction,Plated,PTH,ComponentDrill
T3C0.850
; #@! TA.AperFunction,Plated,PTH,ComponentDrill
T4C1.000
; #@! TA.AperFunction,Plated,PTH,ComponentDrill
T5C1.200
%
G90
G05
T1
X81.5Y-46.5
X87.5Y-69.5
X87.65Y-68.5
X88.5Y-68.0
X97.0Y-62.0
X98.0Y-60.5
X101.0Y-63.9
X102.0Y-64.5
X118.0Y-56.0
X118.266Y-53.766
X119.0Y-58.0
X119.154Y-57.154
X121.0Y-64.5
X121.726Y-64.877
T2
X115.5Y-109.8
T3
X78.5Y-41.5
X78.5Y-48.855
X79.0Y-56.0
X79.0Y-58.5
X79.0Y-61.0
X79.0Y-63.5
X79.0Y-66.0
X79.0Y-72.0
X79.0Y-74.5
X79.0Y-77.0
X79.0Y-79.5
X81.0Y-41.5
X81.0Y-48.855
X123.5Y-45.5
X123.5Y-53.5
X123.5Y-60.855
X124.645Y-92.0
X124.645Y-94.5
X124.645Y-97.0
X125.0Y-103.5
X125.0Y-106.0
X125.0Y-108.5
X126.0Y-45.5
X126.0Y-53.5
X126.0Y-60.855
T4
X113.5Y-51.76
X113.5Y-54.3
X113.5Y-56.84
X113.5Y-59.38
X113.5Y-61.92
X113.5Y-64.46
X113.5Y-67.0
X113.5Y-69.54
X113.5Y-72.08
X113.5Y-74.62
X113.5Y-77.16
X113.5Y-79.7
X113.5Y-82.24
X113.5Y-84.78
X113.5Y-87.32
X113.5Y-89.86
X113.5Y-92.4
X113.5Y-94.94
X113.5Y-97.48
X113.5Y-100.02
X116.04Y-51.76
X116.04Y-54.3
X116.04Y-56.84
X116.04Y-59.38
X116.04Y-61.92
X116.04Y-64.46
X116.04Y-67.0
X116.04Y-69.54
X116.04Y-72.08
X116.04Y-74.62
X116.04Y-77.16
X116.04Y-79.7
X116.04Y-82.24
X116.04Y-84.78
X116.04Y-87.32
X116.04Y-89.86
X116.04Y-92.4
X116.04Y-94.94
X116.04Y-97.48
X116.04Y-100.02
X121.92Y-86.5
X124.46Y-86.5
X127.0Y-86.5
T5
X125.5Y-67.75
X125.5Y-71.25
X125.5Y-77.25
X125.5Y-80.75
T4
X80.25Y-85.3G85X79.75Y-85.3
G05
X80.25Y-90.0G85X79.75Y-90.0
G05
X80.25Y-94.7G85X79.75Y-94.7
G05
X79.0Y-99.5G85X81.0Y-99.5
G05
X79.0Y-105.5G85X81.0Y-105.5
G05
X84.7Y-103.5G85X84.7Y-101.5
G05
M30
